<svg width="32" height="32" fill="none" xmlns="http://www.w3.org/2000/svg"><path d="M14.171 20.434H11.95l1.39-8.85h2.221l-1.39 8.85zm8.056-8.628a5.336 5.336 0 00-1.993-.377c-2.194 0-3.74 1.205-3.749 2.928-.018 1.271 1.106 1.977 1.947 2.4.86.434 1.152.717 1.152 1.103-.008.593-.694.866-1.334.866-.887 0-1.363-.14-2.085-.47l-.292-.142-.311 1.986c.52.245 1.48.462 2.478.472 2.331 0 3.849-1.187 3.867-3.023.009-1.008-.585-1.78-1.865-2.41-.777-.405-1.253-.678-1.253-1.093.009-.376.402-.762 1.28-.762a3.681 3.681 0 011.655.339l.2.094.303-1.912zm2.953 5.493l.887-2.477c-.009.02.183-.517.293-.847l.155.763s.42 2.118.512 2.56H25.18zm2.743-5.715h-1.719c-.53 0-.932.16-1.161.734l-3.3 8.116h2.331l.466-1.328h2.853c.064.311.265 1.328.265 1.328h2.057l-1.792-8.85zm-17.83 0l-2.176 6.035-.237-1.224c-.403-1.413-1.664-2.947-3.072-3.71l1.993 7.74h2.35l3.492-8.841h-2.35z" fill="#15195A"/><path d="M5.897 11.584H2.322l-.036.178c2.788.735 4.635 2.505 5.394 4.633l-.777-4.067c-.128-.566-.521-.726-1.006-.744z" fill="#15195A"/></svg>